Coordinates
version=1
nRows=10
nColumns=22
inDegrees=yes

Units are S.I. units (second, meters, Newtons, ...)
If the header above contains a line with 'inDegrees', this indicates whether rotational values are in degrees (yes) or radians (no).

endheader
time	pelvis_tilt	pelvis_list	pelvis_rotation	pelvis_tx	pelvis_ty	pelvis_tz	hip_flexion_r	hip_adduction_r	hip_rotation_r	knee_angle_r	ankle_angle_r	subtalar_angle_r	hip_flexion_l	hip_adduction_l	hip_rotation_l	knee_angle_l	ankle_angle_l	subtalar_angle_l	lumbar_extension	lumbar_bending	lumbar_rotation
      1.47000000	     -8.61917983	      4.44337478	    -30.19059611	     -0.25857657	      0.82239487	      0.03937316	     16.00592731	     -5.56463337	      1.85106500	    -87.45336205	      2.19790911	      1.83912829	     28.03809306	     -2.54183163	      0.42579237	    -45.52147249	     29.98122328	      3.14868039	     -9.71695202	     -2.69149643	     13.05313777
      1.48000000	     -8.44506049	      4.45784630	    -30.06535837	     -0.23986921	      0.81868035	      0.04929024	     19.41902244	     -5.91029310	      1.49294227	    -90.89414691	      3.64834108	      1.23595215	     26.32609422	     -2.32262590	      0.45830581	    -45.87284744	     31.96185286	      2.96806871	     -9.82199993	     -2.93207297	     12.24863185
      1.49000000	     -8.44738529	      4.41838374	    -30.00480996	     -0.22103828	      0.81582313	      0.05950638	     22.98953611	     -6.05092876	      1.12353126	    -93.56527761	      5.00966825	      0.40811823	     24.46410282	     -2.28356659	      0.48614507	    -45.71214611	     33.65968735	      2.74829149	     -9.75253149	     -2.97784142	     11.46597434
      1.50000000	     -8.56529949	      4.34561543	    -29.98896282	     -0.20191887	      0.81396001	      0.07002936	     26.61133089	     -6.05007256	      0.71097966	    -95.40763999	      6.16830649	     -0.13323230	     22.41068774	     -2.35154694	      0.53313076	    -45.04407014	     34.99569973	      2.68110716	     -9.53897846	     -2.87533469	     10.68743383
      1.51000000	     -8.75947715	      4.13767460	    -29.96235707	     -0.18230515	      0.81327357	      0.08086364	     30.05933739	     -5.86549801	      0.12852440	    -96.32396166	      7.20938144	     -0.79347651	     20.10684292	     -2.57360626	      0.67285360	    -43.92099348	     35.89757346	      2.63208183	     -9.26408705	     -2.52774446	      9.87505676
      1.52000000	     -8.96203763	      3.76368289	    -29.90035751	     -0.16212140	      0.81391514	      0.09206304	     33.15366520	     -5.52514814	     -0.65661700	    -96.27348844	      8.14271339	     -1.32137387	     17.49660011	     -2.94108977	      0.94651018	    -42.37679362	     36.24688466	      2.65982479	     -9.01058513	     -1.95199649	      9.00633987
      1.53000000	     -9.17692722	      3.28275019	    -29.82823016	     -0.14137508	      0.81577608	      0.10363520	     35.88433112	     -5.08211787	     -1.58625658	    -95.28463954	      8.89317301	     -1.63920797	     14.65072734	     -3.41932049	      1.30153820	    -40.47109830	     36.02501647	      2.74424645	     -8.74112643	     -1.20544342	      8.13450808
      1.54000000	     -9.40910924	      2.69616413	    -29.72496020	     -0.12008867	      0.81878693	      0.11560474	     38.17713235	     -4.54701020	     -2.66860504	    -93.36854423	      9.56348097	     -1.93339277	     11.64634435	     -4.02797283	      1.72987772	    -38.31424441	     35.09639650	      2.94997362	     -8.45359703	     -0.30049679	      7.25866577
      1.55000000	     -9.66528637	      2.03025153	    -29.54991131	     -0.09827063	      0.82280719	      0.12788053	     40.00735664	     -3.97482354	     -3.90123801	    -90.56518820	     10.08812207	     -1.99173872	      8.58265725	     -4.74223245	      2.27738531	    -36.01869617	     33.46717439	      3.17658342	     -8.13611290	      0.73983880	      6.35301702
      1.56000000	     -9.92343004	      1.33066461	    -29.38481810	     -0.07604036	      0.82770783	      0.14058781	     41.37339513	     -3.33683253	     -5.15309802	    -86.92963820	     10.46158958	     -2.00608519	      5.51955880	     -5.55093645	      2.78342929	    -33.68938979	     31.08169826	      3.58869715	     -7.79150117	      1.83382898	      5.51277393
